<svg id="eNMTUWcnS5d1" xmlns="http://www.w3.org/2000/svg" xmlns:xlink="http://www.w3.org/1999/xlink" viewBox="0 0 96 96" shape-rendering="geometricPrecision" text-rendering="geometricPrecision" project-id="7eec9a8b50e2402bb47f41b8961d5916" export-id="7038bfa44c9e4be0a68043dafd21ba48" cached="false"><g><rect width="41.895521" height="17.547182" rx="0" ry="0" transform="matrix(1.432134 0 0 1.367741 36 24)" fill="#d30000" stroke-width="0"/><rect width="41.895521" height="17.547182" rx="3" ry="3" transform="matrix(1.432134 0 0 1.367741 13.721592 24)" fill="#d30000" stroke-width="0"/></g><g><rect width="20.94776" height="17.547182" rx="3" ry="3" transform="matrix(1.432134 0 0 1.367741 6.000001 72)" fill="#9c26c3" stroke-width="0"/><rect width="20.94776" height="17.547182" rx="0" ry="0" transform="matrix(1.432134 0 0 1.367741 0.000002 72)" fill="#9c26c3" stroke-width="0"/></g><g transform="translate(.000001 0)"><rect width="41.895521" height="17.547182" rx="3" ry="3" transform="matrix(1.432134 0 0 1.367741 8.820925 48)" fill="#097501" stroke-width="0"/><rect width="41.895521" height="17.547182" rx="0" ry="0" transform="matrix(1.432134 0 0 1.367741 0 48)" fill="#097501" stroke-width="0"/></g><g transform="translate(6.410464 0)"><rect width="28.265575" height="17.547182" rx="0" ry="0" transform="matrix(-1.204937 0 0 1.367741 89.589539 0)" fill="#f1d60f" stroke-width="0"/><rect width="28.265575" height="17.547182" rx="3" ry="3" transform="matrix(-1.415149 0 0 1.367741 68.820924 0)" fill="#f1d60f" stroke-width="0"/></g></svg>
